<svg width="32" height="32" viewBox="0 0 32 32" fill="none" xmlns="http://www.w3.org/2000/svg">
    <path d="M13.6 15.1667H14.8071L13.9536 14.3131L11.4202 11.7798C11.0955 11.455 11.0955 10.945 11.4202 10.6202C11.7449 10.2955 12.2549 10.2955 12.5796 10.6201C12.5797 10.6201 12.5797 10.6202 12.5798 10.6202L17.366 15.4197L17.3664 15.4202C17.6912 15.745 17.6912 16.2684 17.3664 16.5931L12.5798 21.3798C12.255 21.7045 11.745 21.7045 11.4202 21.3798C11.0955 21.055 11.0955 20.545 11.4202 20.2202L13.9536 17.6869L14.8071 16.8333H13.6H1.33333C0.876142 16.8333 0.5 16.4572 0.5 16C0.5 15.5428 0.876142 15.1667 1.33333 15.1667H13.6ZM24 25.8333H24.5V25.3333V6.66667V6.16667H24H14.6667C14.2095 6.16667 13.8333 5.79052 13.8333 5.33333C13.8333 4.87614 14.2095 4.5 14.6667 4.5H24C25.1905 4.5 26.1667 5.47614 26.1667 6.66667V25.3333C26.1667 26.5239 25.1905 27.5 24 27.5H14.6667C14.2095 27.5 13.8333 27.1239 13.8333 26.6667C13.8333 26.2095 14.2095 25.8333 14.6667 25.8333H24Z" fill="#B5D43B" stroke="#B5D43B"/>
</svg>