<svg width="48" height="48" viewBox="0 0 48 48" fill="none" xmlns="http://www.w3.org/2000/svg">
    <path fill-rule="evenodd" clip-rule="evenodd" d="M48 15.3876C48 12.8064 46.7594 10.8708 44.2784 9.58034L27.7212 0.967854C25.2403 -0.322618 22.7594 -0.322618 20.2784 0.967854L3.72158 9.58034C1.24064 10.8708 0 12.8064 0 15.3876V32.6123C0 35.1934 1.24052 37.1292 3.72158 38.4196L20.2784 47.0321C22.7595 48.3226 25.2404 48.3226 27.7212 47.0321L44.2784 38.4196C46.7594 37.1291 48 35.1936 48 32.6123V15.3876ZM0.694178 32.6123V15.3876C0.694178 13.0473 1.81895 11.2919 4.06849 10.1217L20.6253 1.50917C22.8752 0.33921 25.1248 0.33921 27.3743 1.50917L43.9312 10.1217C46.1811 11.2919 47.3058 13.0471 47.3058 15.3876V32.6123C47.3058 34.9529 46.1811 36.708 43.9312 37.8783L27.3743 46.4907C25.1248 47.6607 22.8752 47.6607 20.6253 46.4907L4.06849 37.8783C1.81895 36.708 0.694178 34.9525 0.694178 32.6123Z" fill="#B5D43B"/>
    <path fill-rule="evenodd" clip-rule="evenodd" d="M5.47545 20.9794C3.85499 20.9794 3.04459 21.7092 3.04459 23.1691V24.7551C3.04459 26.2154 3.85499 26.9452 5.47545 26.9452H6.39744V31.1614L11.2592 31.2368V35.1014H17.7971V26.9452H30.2029V35.0257H36.7409V31.1742H41.6026V27.0209H42.5246C44.145 27.0209 44.9554 26.2907 44.9554 24.8308V23.2448C44.9554 22.6117 44.7194 22.0903 44.248 21.6815C43.7692 21.2658 43.183 21.0821 42.4895 21.1301H41.6026V16.7503H36.7409V12.8988H30.2029V21.0547H17.7971V12.8988H11.2592V16.7503H6.39744V20.9794H5.47545ZM12.9354 33.5909V14.4091H16.1209V33.5909H12.9354ZM31.8791 33.5155V14.4091H35.0643V33.5155H31.8791ZM11.2592 29.7262L8.07405 29.6769V18.2605H11.2592V29.7262ZM36.7409 29.664V18.2605H39.926V29.664H36.7409ZM4.72119 23.1691C4.72119 22.7161 4.97261 22.4896 5.47545 22.4896H6.39744V25.4349H5.47545C4.97261 25.4349 4.72119 25.2084 4.72119 24.7551V23.1691ZM17.7971 25.4349V22.565H30.2029V25.4349H17.7971ZM43.2788 24.8308C43.2788 25.2838 43.0274 25.5103 42.5246 25.5103H41.6026V22.6407H42.5625L42.6004 22.6375C42.8032 22.621 42.9648 22.6649 43.085 22.7693C43.2141 22.8814 43.2788 23.0399 43.2788 23.2448V24.8308Z" fill="#B5D43B"/>
</svg>

