<svg width="32" height="34" viewBox="0 0 32 34" fill="none" xmlns="http://www.w3.org/2000/svg">
    <path d="M17.1734 7.08777C21.4134 7.64917 24.7334 11.1439 25.2667 15.6071C25.3467 16.3229 25.9201 16.8422 26.5867 16.8422C26.6401 16.8422 26.6934 16.8422 26.7467 16.8281C27.4801 16.7299 28.0001 16.0281 27.9067 15.2562C27.2267 9.51584 22.9467 5.01057 17.4934 4.29478C16.7601 4.21057 16.0934 4.75794 16.0134 5.52987C15.9201 6.3018 16.4401 7.00356 17.1734 7.08777ZM17.6801 10.0492C16.9734 9.85268 16.2401 10.3018 16.0534 11.0597C15.8667 11.8176 16.2934 12.5755 17.0134 12.772C18.4134 13.1509 19.5067 14.3018 19.8801 15.7895C20.0401 16.4211 20.5734 16.8422 21.1734 16.8422C21.2801 16.8422 21.4001 16.8281 21.5067 16.8C22.2134 16.6036 22.6401 15.8316 22.4667 15.0878C21.8401 12.6036 20.0134 10.6807 17.6801 10.0492ZM25.6401 21.4176L22.2534 21.0106C21.4401 20.9123 20.6401 21.2071 20.0667 21.8106L17.6134 24.393C13.8401 22.372 10.7467 19.1299 8.82672 15.1439L11.2934 12.5474C11.8667 11.9439 12.1467 11.1018 12.0534 10.2457L11.6667 6.70882C11.5067 5.29128 10.3734 4.22461 9.01339 4.22461H6.70672C5.20005 4.22461 3.94672 5.54391 4.04005 7.12987C4.74672 19.1158 13.8534 28.6878 25.2267 29.4316C26.7334 29.5299 27.9867 28.2106 27.9867 26.6246V24.1965C28.0001 22.779 26.9867 21.586 25.6401 21.4176Z" fill="#B5D43B"/>
</svg>