<svg width="32" height="32" viewBox="0 0 32 32" fill="none" xmlns="http://www.w3.org/2000/svg">
    <mask id="mask0_112_68" style="mask-type:alpha" maskUnits="userSpaceOnUse" x="0" y="0" width="32" height="32">
        <rect width="32" height="32" fill="#D9D9D9"/>
    </mask>
    <g mask="url(#mask0_112_68)">
        <path d="M10.6667 24H12.6667V21.3333H15.3333V19.3333H12.6667V16.6667H10.6667V19.3333H8V21.3333H10.6667V24ZM17.3333 23H24V21H17.3333V23ZM17.3333 19.6667H24V17.6667H17.3333V19.6667ZM18.8 14.6L20.6667 12.7333L22.5333 14.6L23.9333 13.2L22.0667 11.2667L23.9333 9.4L22.5333 8L20.6667 9.86667L18.8 8L17.4 9.4L19.2667 11.2667L17.4 13.2L18.8 14.6ZM8.33333 12.2667H15V10.2667H8.33333V12.2667ZM6.66667 28C5.93333 28 5.30556 27.7389 4.78333 27.2167C4.26111 26.6944 4 26.0667 4 25.3333V6.66667C4 5.93333 4.26111 5.30556 4.78333 4.78333C5.30556 4.26111 5.93333 4 6.66667 4H25.3333C26.0667 4 26.6944 4.26111 27.2167 4.78333C27.7389 5.30556 28 5.93333 28 6.66667V25.3333C28 26.0667 27.7389 26.6944 27.2167 27.2167C26.6944 27.7389 26.0667 28 25.3333 28H6.66667ZM6.66667 25.3333H25.3333V6.66667H6.66667V25.3333Z" fill="#B5D43B"/>
    </g>
</svg>