<svg width="32" height="32" viewBox="0 0 32 32" fill="none" xmlns="http://www.w3.org/2000/svg">
    <mask id="mask0_112_54" style="mask-type:alpha" maskUnits="userSpaceOnUse" x="0" y="0" width="32" height="32">
        <rect width="32" height="32" fill="#D9D9D9"/>
    </mask>
    <g mask="url(#mask0_112_54)">
        <path d="M24 18.6667V14.6667H20V12H24V8.00001H26.6667V12H30.6667V14.6667H26.6667V18.6667H24ZM12 16C10.5334 16 9.27782 15.4778 8.23337 14.4333C7.18893 13.3889 6.66671 12.1333 6.66671 10.6667C6.66671 9.20001 7.18893 7.94445 8.23337 6.90001C9.27782 5.85557 10.5334 5.33334 12 5.33334C13.4667 5.33334 14.7223 5.85557 15.7667 6.90001C16.8112 7.94445 17.3334 9.20001 17.3334 10.6667C17.3334 12.1333 16.8112 13.3889 15.7667 14.4333C14.7223 15.4778 13.4667 16 12 16ZM1.33337 26.6667V22.9333C1.33337 22.1778 1.52782 21.4833 1.91671 20.85C2.3056 20.2167 2.82226 19.7333 3.46671 19.4C4.84449 18.7111 6.24449 18.1945 7.66671 17.85C9.08893 17.5056 10.5334 17.3333 12 17.3333C13.4667 17.3333 14.9112 17.5056 16.3334 17.85C17.7556 18.1945 19.1556 18.7111 20.5334 19.4C21.1778 19.7333 21.6945 20.2167 22.0834 20.85C22.4723 21.4833 22.6667 22.1778 22.6667 22.9333V26.6667H1.33337ZM4.00004 24H20V22.9333C20 22.6889 19.9389 22.4667 19.8167 22.2667C19.6945 22.0667 19.5334 21.9111 19.3334 21.8C18.1334 21.2 16.9223 20.75 15.7 20.45C14.4778 20.15 13.2445 20 12 20C10.7556 20 9.52226 20.15 8.30004 20.45C7.07782 20.75 5.86671 21.2 4.66671 21.8C4.46671 21.9111 4.3056 22.0667 4.18337 22.2667C4.06115 22.4667 4.00004 22.6889 4.00004 22.9333V24ZM12 13.3333C12.7334 13.3333 13.3612 13.0722 13.8834 12.55C14.4056 12.0278 14.6667 11.4 14.6667 10.6667C14.6667 9.93334 14.4056 9.30557 13.8834 8.78334C13.3612 8.26112 12.7334 8.00001 12 8.00001C11.2667 8.00001 10.6389 8.26112 10.1167 8.78334C9.59449 9.30557 9.33337 9.93334 9.33337 10.6667C9.33337 11.4 9.59449 12.0278 10.1167 12.55C10.6389 13.0722 11.2667 13.3333 12 13.3333Z" fill="#B5D43B"/>
    </g>
</svg>