<svg width="32" height="34" viewBox="0 0 32 34" fill="none" xmlns="http://www.w3.org/2000/svg">
    <mask id="mask0_64_71" style="mask-type:alpha" maskUnits="userSpaceOnUse" x="0" y="0" width="32" height="34">
        <rect y="0.157959" width="32" height="33.6842" fill="#D9D9D9"/>
    </mask>
    <g mask="url(#mask0_64_71)">
        <path d="M5.33329 28.2281C4.59996 28.2281 3.97218 27.9533 3.44996 27.4036C2.92774 26.8538 2.66663 26.193 2.66663 25.4211V8.57899C2.66663 7.80706 2.92774 7.14624 3.44996 6.59653C3.97218 6.04683 4.59996 5.77197 5.33329 5.77197H26.6666C27.4 5.77197 28.0277 6.04683 28.55 6.59653C29.0722 7.14624 29.3333 7.80706 29.3333 8.57899V25.4211C29.3333 26.193 29.0722 26.8538 28.55 27.4036C28.0277 27.9533 27.4 28.2281 26.6666 28.2281H5.33329ZM16 18.4036L5.33329 11.386V25.4211H26.6666V11.386L16 18.4036ZM16 15.5965L26.6666 8.57899H5.33329L16 15.5965ZM5.33329 11.386V8.57899V25.4211V11.386Z" fill="#B5D43B"/>
    </g>
</svg>